<mxfile host="app.diagrams.net" modified="2021-08-01T05:10:26.874Z" agent="5.0 (Macintosh; Intel Mac OS X 10_15_7) AppleWebKit/537.36 (KHTML, like Gecko) Chrome/92.0.4515.107 Safari/537.36" etag="S6G9oEnesLO5bTQSAfBJ" version="14.9.3" type="github">
  <diagram id="7_ys4gmOJ4kkhI0j7KRB" name="Page-1">
    <mxGraphModel dx="946" dy="589" grid="1" gridSize="10" guides="1" tooltips="1" connect="1" arrows="1" fold="1" page="1" pageScale="1" pageWidth="850" pageHeight="1100" math="0" shadow="0">
      <root>
        <mxCell id="0" />
        <mxCell id="1" parent="0" />
        <mxCell id="Pzn75_xXhs2PhzWKn2_n-1" value="Web" style="text;html=1;strokeColor=none;fillColor=none;align=center;verticalAlign=middle;whiteSpace=wrap;rounded=0;" vertex="1" parent="1">
          <mxGeometry x="140" y="100" width="40" height="20" as="geometry" />
        </mxCell>
        <mxCell id="Pzn75_xXhs2PhzWKn2_n-2" value="Mobile" style="text;html=1;strokeColor=none;fillColor=none;align=center;verticalAlign=middle;whiteSpace=wrap;rounded=0;" vertex="1" parent="1">
          <mxGeometry x="360" y="100" width="40" height="20" as="geometry" />
        </mxCell>
        <mxCell id="Pzn75_xXhs2PhzWKn2_n-3" value="Windows/MacOS" style="text;html=1;strokeColor=none;fillColor=none;align=center;verticalAlign=middle;whiteSpace=wrap;rounded=0;" vertex="1" parent="1">
          <mxGeometry x="610" y="100" width="40" height="20" as="geometry" />
        </mxCell>
        <mxCell id="Pzn75_xXhs2PhzWKn2_n-4" value="Server" style="rounded=0;whiteSpace=wrap;html=1;" vertex="1" parent="1">
          <mxGeometry x="100" y="200" width="120" height="60" as="geometry" />
        </mxCell>
        <mxCell id="Pzn75_xXhs2PhzWKn2_n-5" value="Browser" style="rounded=0;whiteSpace=wrap;html=1;" vertex="1" parent="1">
          <mxGeometry x="100" y="440" width="120" height="60" as="geometry" />
        </mxCell>
        <mxCell id="Pzn75_xXhs2PhzWKn2_n-6" value="iOS" style="rounded=0;whiteSpace=wrap;html=1;" vertex="1" parent="1">
          <mxGeometry x="310" y="250" width="120" height="60" as="geometry" />
        </mxCell>
        <mxCell id="Pzn75_xXhs2PhzWKn2_n-7" value="Android" style="rounded=0;whiteSpace=wrap;html=1;" vertex="1" parent="1">
          <mxGeometry x="310" y="390" width="120" height="60" as="geometry" />
        </mxCell>
        <mxCell id="Pzn75_xXhs2PhzWKn2_n-8" value="" style="endArrow=classic;startArrow=classic;html=1;exitX=0.5;exitY=0;exitDx=0;exitDy=0;entryX=0.5;entryY=1;entryDx=0;entryDy=0;" edge="1" parent="1" source="Pzn75_xXhs2PhzWKn2_n-5" target="Pzn75_xXhs2PhzWKn2_n-4">
          <mxGeometry width="50" height="50" relative="1" as="geometry">
            <mxPoint x="140" y="370" as="sourcePoint" />
            <mxPoint x="190" y="320" as="targetPoint" />
          </mxGeometry>
        </mxCell>
        <mxCell id="Pzn75_xXhs2PhzWKn2_n-9" value="Swift" style="ellipse;shape=cloud;whiteSpace=wrap;html=1;" vertex="1" parent="1">
          <mxGeometry x="400" y="210" width="120" height="80" as="geometry" />
        </mxCell>
        <mxCell id="Pzn75_xXhs2PhzWKn2_n-10" value="Java" style="ellipse;shape=cloud;whiteSpace=wrap;html=1;" vertex="1" parent="1">
          <mxGeometry x="410" y="350" width="120" height="80" as="geometry" />
        </mxCell>
        <mxCell id="Pzn75_xXhs2PhzWKn2_n-11" value="HTML&lt;br&gt;CSS&lt;br&gt;JavaScript" style="ellipse;shape=cloud;whiteSpace=wrap;html=1;" vertex="1" parent="1">
          <mxGeometry x="40" y="490" width="120" height="80" as="geometry" />
        </mxCell>
        <mxCell id="Pzn75_xXhs2PhzWKn2_n-12" value="Java&lt;br&gt;JavaScript&lt;br&gt;PHP" style="ellipse;shape=cloud;whiteSpace=wrap;html=1;" vertex="1" parent="1">
          <mxGeometry x="20" y="140" width="120" height="80" as="geometry" />
        </mxCell>
        <mxCell id="Pzn75_xXhs2PhzWKn2_n-13" value="Data Science / Scripting / ..." style="text;html=1;strokeColor=none;fillColor=none;align=center;verticalAlign=middle;whiteSpace=wrap;rounded=0;" vertex="1" parent="1">
          <mxGeometry x="830" y="100" width="250" height="20" as="geometry" />
        </mxCell>
        <mxCell id="Pzn75_xXhs2PhzWKn2_n-14" value="python, R,..." style="ellipse;shape=cloud;whiteSpace=wrap;html=1;" vertex="1" parent="1">
          <mxGeometry x="895" y="190" width="120" height="80" as="geometry" />
        </mxCell>
      </root>
    </mxGraphModel>
  </diagram>
</mxfile>
